<svg xmlns="http://www.w3.org/2000/svg" viewBox="0 0 407.98 148.22"><defs><style>.a{fill:#00548e;}</style></defs><title>NDI</title><path class="a" d="M256.16,157.18H228.31L184.63,88.06v69.12H157.81V42.67H186.7l42.64,69.81V42.67h26.82Z" transform="translate(0 -26.39)"/><path class="a" d="M267.84,42.67h41.78c40.93,0,60.87,18.74,60.87,57.25s-19.94,57.26-60.87,57.26H267.84Zm42.82,90.44c20.8,0,30.6-10.49,30.6-33.19s-9.8-33.18-30.6-33.18H297.07v66.37Z" transform="translate(0 -26.39)"/><path class="a" d="M408,157.18H378.75V42.67H408Z" transform="translate(0 -26.39)"/><path class="a" d="M109.43,110.23a11.16,11.16,0,0,0,7.95-3.29l2.83-2.62L108,92.77a16.25,16.25,0,0,0-22.24-.7l15.74,14.86A11.17,11.17,0,0,0,109.43,110.23Z" transform="translate(0 -26.39)"/><path class="a" d="M70.41,157.15l-.94-.08-1-.09,30.85-32a11.24,11.24,0,0,0,0-15.9L84.4,93.31,34.91,141.07A56.83,56.83,0,0,0,68.46,157L52.25,173.78a.49.49,0,0,0,0,.68.47.47,0,0,0,.35.14.5.5,0,0,0,.34-.13l17.91-17.29Z" transform="translate(0 -26.39)"/><path class="a" d="M61.27,44.84l.83-.19,1.57-.34.25-.05L46.83,28.13a.49.49,0,0,0-.69.69Z" transform="translate(0 -26.39)"/><path class="a" d="M34.54,140.76l-.48-.5-.54-.55.33-.34L81.29,90.2,65.51,75.29a11.25,11.25,0,0,0-15.91,0L18,105.82l-.11-1.34c0-.29-.05-.59-.06-.88v-.21L47.2,72.89a11.24,11.24,0,0,0,0-15.89l-4-4.28.74-.48c.42-.27.83-.54,1.25-.79l.32-.19,3.82,3.55a11.24,11.24,0,0,0,15.91,0l2.9-2.68-6.9-7.3a56.44,56.44,0,0,0-15.71,6.43L28.25,35.18a.49.49,0,0,0-.68,0,.47.47,0,0,0,0,.67L43.25,52.74a57,57,0,0,0-25.57,47.54c0,1,0,2.08.09,3.11L.14,121.67a.48.48,0,0,0,0,.68.52.52,0,0,0,.35.14.47.47,0,0,0,.34-.14L18,105.82a56.89,56.89,0,0,0,15.58,33.87L14.6,159.31a.49.49,0,0,0,.35.83.51.51,0,0,0,.34-.14l19.59-18.9Z" transform="translate(0 -26.39)"/><path class="a" d="M70.28,54.39l-2.6,2.82a11.23,11.23,0,0,0,0,15.91L82.54,88.87a16.18,16.18,0,0,0-.7-22.24Z" transform="translate(0 -26.39)"/><path class="a" d="M130.74,111.1a57.53,57.53,0,0,0,1-10.82c0-1.27-.06-2.53-.14-3.78l9-9.68a.49.49,0,0,0-.69-.69L131.43,94l.09,1c0,.4.07.81.1,1.21l0,.35-7.27,7.86Z" transform="translate(0 -26.39)"/><path class="a" d="M117.62,127.41a11.23,11.23,0,0,0-15.91,0L70.85,157.18c1.29.08,2.58.14,3.88.14a57,57,0,0,0,47.55-25.57Z" transform="translate(0 -26.39)"/><path class="a" d="M148.07,26.53a.47.47,0,0,0-.67,0l-34,31.89a56.76,56.76,0,0,0-33.08-14.9l8.14-8.81a.48.48,0,0,0,0-.67.47.47,0,0,0-.67,0L77.73,43.31c-1-.05-2-.08-3-.08a57.4,57.4,0,0,0-10.8,1l6.31,6,7.49-6.92h.2L79,43.4l1.33.11-8,8.68L84.64,63.82a16.27,16.27,0,0,0,23,0l5.79-5.44.33.31c.73.69,1.44,1.39,2.14,2.12l.32.33L110.78,67a16.27,16.27,0,0,0,0,23l11.64,12.33,9-8.33a56.89,56.89,0,0,0-15.21-32.79l31.87-34A.49.49,0,0,0,148.07,26.53Z" transform="translate(0 -26.39)"/><path class="a" d="M130.74,111.11l0,.25c-.1.48-.21,1-.32,1.45l-.19.83-.64-.5-7.1-6.7-2.66,2.88a11.27,11.27,0,0,0,0,15.91l3.94,4.24a57.17,57.17,0,0,0,6.45-15.75l15.62,14.74a.47.47,0,0,0,.33.14.46.46,0,0,0,.34-.15.48.48,0,0,0,0-.68Z" transform="translate(0 -26.39)"/><path class="a" d="M123.74,129.49l-.19.32c-.25.4-.5.8-.76,1.2l-.49.75,16.44,15.29a.51.51,0,0,0,.33.13.52.52,0,0,0,.35-.14.5.5,0,0,0,0-.68Z" transform="translate(0 -26.39)"/></svg>