<?xml version="1.0" encoding="UTF-8" standalone="no"?>
<svg
   viewBox="0 0 437.26839 148.21059"
   version="1.1"
   id="svg13"
   sodipodi:docname="NDI-logo.svg"
   width="437.2684"
   height="148.21059"
   inkscape:version="1.4 (e7c3feb1, 2024-10-09)"
   xmlns:inkscape="http://www.inkscape.org/namespaces/inkscape"
   xmlns:sodipodi="http://sodipodi.sourceforge.net/DTD/sodipodi-0.dtd"
   xmlns="http://www.w3.org/2000/svg"
   xmlns:svg="http://www.w3.org/2000/svg"
   xmlns:rdf="http://www.w3.org/1999/02/22-rdf-syntax-ns#"
   xmlns:cc="http://creativecommons.org/ns#"
   xmlns:dc="http://purl.org/dc/elements/1.1/">
  <sodipodi:namedview
     id="namedview13"
     pagecolor="#ffffff"
     bordercolor="#000000"
     borderopacity="0.25"
     inkscape:showpageshadow="2"
     inkscape:pageopacity="0.0"
     inkscape:pagecheckerboard="0"
     inkscape:deskcolor="#d1d1d1"
     inkscape:zoom="1.8329218"
     inkscape:cx="310.16054"
     inkscape:cy="139.39493"
     inkscape:window-width="1712"
     inkscape:window-height="1040"
     inkscape:window-x="0"
     inkscape:window-y="39"
     inkscape:window-maximized="0"
     inkscape:current-layer="svg13" />
  <defs
     id="defs1">
    <style
       id="style1">.a{fill:#00548e;}</style>
  </defs>
  <title
     id="title1">NDI</title>
  <path
     class="a"
     d="m 256.16118,130.79034 h -27.85 l -43.68,-69.119999 v 69.119999 h -26.82 V 16.280341 h 28.89 l 42.64,69.81 v -69.81 h 26.82 z"
     id="path1" />
  <path
     class="a"
     d="m 267.84118,16.280341 h 41.78 c 40.93,0 60.87,18.74 60.87,57.25 0,38.509999 -19.94,57.259999 -60.87,57.259999 h -41.78 z m 42.82,90.439999 c 20.8,0 30.6,-10.489999 30.6,-33.189999 0,-22.7 -9.8,-33.18 -30.6,-33.18 h -13.59 v 66.369999 z"
     id="path2" />
  <path
     class="a"
     d="m 408.00118,130.79034 h -29.25 V 16.280341 h 29.25 z"
     id="path3" />
  <path
     class="a"
     d="m 437.2684,131.29034 h -29.25 V 16.780341 h 29.25 z"
     id="path3-9"
     style="fill:none;stroke:none;stroke-opacity:1" />
  <g
     id="g13"
     transform="translate(0.00117851,3.4108536e-4)">
    <path
       class="a"
       d="m 109.43,110.23 a 11.16,11.16 0 0 0 7.95,-3.29 l 2.83,-2.62 L 108,92.77 a 16.25,16.25 0 0 0 -22.24,-0.7 l 15.74,14.86 a 11.17,11.17 0 0 0 7.93,3.3 z"
       transform="translate(0,-26.39)"
       id="path4" />
    <path
       class="a"
       d="m 70.41,157.15 -0.94,-0.08 -1,-0.09 30.85,-32 a 11.24,11.24 0 0 0 0,-15.9 L 84.4,93.31 34.91,141.07 A 56.83,56.83 0 0 0 68.46,157 l -16.21,16.78 a 0.49,0.49 0 0 0 0,0.68 0.47,0.47 0 0 0 0.35,0.14 0.5,0.5 0 0 0 0.34,-0.13 l 17.91,-17.29 z"
       transform="translate(0,-26.39)"
       id="path5" />
    <path
       class="a"
       d="m 61.27,44.84 0.83,-0.19 1.57,-0.34 0.25,-0.05 -17.09,-16.13 a 0.49,0.49 0 0 0 -0.69,0.69 z"
       transform="translate(0,-26.39)"
       id="path6" />
    <path
       class="a"
       d="m 34.54,140.76 -0.48,-0.5 -0.54,-0.55 0.33,-0.34 L 81.29,90.2 65.51,75.29 a 11.25,11.25 0 0 0 -15.91,0 L 18,105.82 17.89,104.48 c 0,-0.29 -0.05,-0.59 -0.06,-0.88 v -0.21 L 47.2,72.89 A 11.24,11.24 0 0 0 47.2,57 l -4,-4.28 0.74,-0.48 c 0.42,-0.27 0.83,-0.54 1.25,-0.79 l 0.32,-0.19 3.82,3.55 a 11.24,11.24 0 0 0 15.91,0 l 2.9,-2.68 -6.9,-7.3 A 56.44,56.44 0 0 0 45.53,51.26 L 28.25,35.18 a 0.49,0.49 0 0 0 -0.68,0 0.47,0.47 0 0 0 0,0.67 l 15.68,16.89 a 57,57 0 0 0 -25.57,47.54 c 0,1 0,2.08 0.09,3.11 L 0.14,121.67 a 0.48,0.48 0 0 0 0,0.68 0.52,0.52 0 0 0 0.35,0.14 0.47,0.47 0 0 0 0.34,-0.14 L 18,105.82 a 56.89,56.89 0 0 0 15.58,33.87 L 14.6,159.31 a 0.49,0.49 0 0 0 0.35,0.83 0.51,0.51 0 0 0 0.34,-0.14 l 19.59,-18.9 z"
       transform="translate(0,-26.39)"
       id="path7" />
    <path
       class="a"
       d="m 70.28,54.39 -2.6,2.82 a 11.23,11.23 0 0 0 0,15.91 l 14.86,15.75 a 16.18,16.18 0 0 0 -0.7,-22.24 z"
       transform="translate(0,-26.39)"
       id="path8" />
    <path
       class="a"
       d="m 130.74,111.1 a 57.53,57.53 0 0 0 1,-10.82 c 0,-1.27 -0.06,-2.53 -0.14,-3.78 l 9,-9.68 a 0.49,0.49 0 0 0 -0.69,-0.69 l -8.48,7.87 0.09,1 c 0,0.4 0.07,0.81 0.1,1.21 v 0.35 l -7.27,7.86 z"
       transform="translate(0,-26.39)"
       id="path9" />
    <path
       class="a"
       d="m 117.62,127.41 a 11.23,11.23 0 0 0 -15.91,0 l -30.86,29.77 c 1.29,0.08 2.58,0.14 3.88,0.14 a 57,57 0 0 0 47.55,-25.57 z"
       transform="translate(0,-26.39)"
       id="path10" />
    <path
       class="a"
       d="m 148.07,26.53 a 0.47,0.47 0 0 0 -0.67,0 l -34,31.89 A 56.76,56.76 0 0 0 80.32,43.52 l 8.14,-8.81 a 0.48,0.48 0 0 0 0,-0.67 0.47,0.47 0 0 0 -0.67,0 l -10.06,9.27 c -1,-0.05 -2,-0.08 -3,-0.08 a 57.4,57.4 0 0 0 -10.8,1 l 6.31,6 7.49,-6.92 h 0.2 l 1.07,0.09 1.33,0.11 -8,8.68 12.31,11.63 a 16.27,16.27 0 0 0 23,0 l 5.79,-5.44 0.33,0.31 c 0.73,0.69 1.44,1.39 2.14,2.12 l 0.32,0.33 -5.44,5.86 a 16.27,16.27 0 0 0 0,23 l 11.64,12.33 9,-8.33 A 56.89,56.89 0 0 0 116.21,61.21 l 31.87,-34 a 0.49,0.49 0 0 0 -0.01,-0.68 z"
       transform="translate(0,-26.39)"
       id="path11" />
    <path
       class="a"
       d="m 130.74,111.11 v 0.25 c -0.1,0.48 -0.21,1 -0.32,1.45 l -0.19,0.83 -0.64,-0.5 -7.1,-6.7 -2.66,2.88 a 11.27,11.27 0 0 0 0,15.91 l 3.94,4.24 a 57.17,57.17 0 0 0 6.45,-15.75 l 15.62,14.74 a 0.47,0.47 0 0 0 0.33,0.14 0.46,0.46 0 0 0 0.34,-0.15 0.48,0.48 0 0 0 0,-0.68 z"
       transform="translate(0,-26.39)"
       id="path12" />
    <path
       class="a"
       d="m 123.74,129.49 -0.19,0.32 c -0.25,0.4 -0.5,0.8 -0.76,1.2 l -0.49,0.75 16.44,15.29 a 0.51,0.51 0 0 0 0.33,0.13 0.52,0.52 0 0 0 0.35,-0.14 0.5,0.5 0 0 0 0,-0.68 z"
       transform="translate(0,-26.39)"
       id="path13" />
  </g>
  <metadata
     id="metadata13">
    <rdf:RDF>
      <cc:Work
         rdf:about="">
        <dc:title>NDI</dc:title>
      </cc:Work>
    </rdf:RDF>
  </metadata>
</svg>
