<?xml version="1.0" encoding="UTF-8" standalone="no"?>
<svg
   id="UW_Logo_2L_horz_cmyk"
   viewBox="0 0 108.76932 135.55999"
   version="1.1"
   sodipodi:docname="uwindsor_logo.svg"
   width="108.76932"
   height="135.56"
   inkscape:version="1.4 (e7c3feb1, 2024-10-09)"
   xmlns:inkscape="http://www.inkscape.org/namespaces/inkscape"
   xmlns:sodipodi="http://sodipodi.sourceforge.net/DTD/sodipodi-0.dtd"
   xmlns="http://www.w3.org/2000/svg"
   xmlns:svg="http://www.w3.org/2000/svg"
   xmlns:rdf="http://www.w3.org/1999/02/22-rdf-syntax-ns#"
   xmlns:cc="http://creativecommons.org/ns#"
   xmlns:dc="http://purl.org/dc/elements/1.1/">
  <sodipodi:namedview
     id="namedview56"
     pagecolor="#ffffff"
     bordercolor="#000000"
     borderopacity="0.25"
     inkscape:showpageshadow="2"
     inkscape:pageopacity="0.0"
     inkscape:pagecheckerboard="0"
     inkscape:deskcolor="#d1d1d1"
     showgrid="false"
     inkscape:zoom="3.358474"
     inkscape:cx="131.45851"
     inkscape:cy="67.739097"
     inkscape:window-width="1696"
     inkscape:window-height="1020"
     inkscape:window-x="0"
     inkscape:window-y="39"
     inkscape:window-maximized="1"
     inkscape:current-layer="UW_Logo_2L_horz_cmyk" />
  <defs
     id="defs1">
    <style
       id="style1">.cls-1{fill:#fff;}.cls-2{fill:#005596;}.cls-3{fill:#ffcf01;}.cls-4{fill:#58595b;}</style>
  </defs>
  <title
     id="title1">uwindsor_logo</title>
  <path
     class="cls-1"
     d="m 54.386066,132.32 c -70,-27.27 -48.1700002,-120.3 -48.1700002,-120.3 12.6400002,-6.65 41.2900002,-9 48.1700002,-9 6.88,0 35.53,2.39 48.170004,9 -0.01,0 21.8,93.02 -48.170004,120.3 z"
     id="path1" />
  <path
     class="cls-2"
     d="m 105.46607,11.34 -0.31,-1.33 -1.21,-0.64 C 90.576066,2.37 61.106066,0 54.386066,0 c -6.72,0 -36.2,2.35 -49.5700002,9.38 l -1.21,0.62 -0.31,1.33 a 160.5,160.5 0 0 0 -2.21,51 c 2,15.91 6.58,29.81 13.7100002,41.29 9,14.45 21.93,25.05 38.51,31.51 l 1.09,0.43 1.09,-0.43 c 16.58,-6.46 29.53,-17.06 38.5,-31.51 7.130004,-11.48 11.740004,-25.37 13.700004,-41.29 a 160.37,160.37 0 0 0 -2.22,-50.99 z m -51.090004,121 c -70,-27.27 -48.1700002,-120.3 -48.1700002,-120.3 12.6400002,-6.65 41.2900002,-9 48.1700002,-9 6.88,0 35.53,2.38 48.170004,9 0,-0.02 21.8,93.01 -48.170004,120.28 z"
     id="path2" />
  <path
     class="cls-2"
     d="m 10.546066,80.57 a 77.83,77.83 0 0 0 15.43,28.73 l -5.79,-31.82 c -4.25,1.2 -7.59,2.36 -9.64,3.12 z"
     id="path3" />
  <path
     class="cls-2"
     d="m 40.126066,55.28 9.36,-48.56 a 198.91,198.91 0 0 0 -28.81,4.13 l 7.83,46.2 c 3.93,-0.75 7.82,-1.35 11.57,-1.77 z m -2.52,-26.23 c 0,1.21 0.25,2.23 0.55,2.36 a 20.59,20.59 0 0 0 -1.71,1.29 c -0.38,0.38 -2.06,2.41 -2.06,2.41 0,0 -1.68,-2 -2.06,-2.41 a 20.07,20.07 0 0 0 -1.72,-1.3 c 0.3,-0.13 0.55,-1.14 0.55,-2.36 0,-1.47 -0.85,-2.79 -2.1,-2.79 -1.81,0 -2.06,1.24 -2.06,1.24 0,0 -1.67,-1.57 -1.67,-3.09 0,-3.45 1.86,-3.21 2.66,-3.21 1.85,0 4.37,2.88 4.37,2.88 -0.28,-0.63 -0.76,-1.75 -0.9,-2.1 -0.06,-0.14 -0.13,-0.32 -0.21,-0.51 a 4.51,4.51 0 0 1 -0.09,-3.18 c 0.43,-1.33 1.35,-1.9 2.1,-2.83 0.75,-0.93 1.12,-1.31 1.12,-1.31 0,0 0.31,0.32 1.11,1.31 0.8,0.99 1.67,1.5 2.1,2.83 a 4.5,4.5 0 0 1 -0.05,3.2 c -0.07,0.2 -0.15,0.37 -0.21,0.51 -0.14,0.35 -0.62,1.47 -0.9,2.1 0,0 2.52,-2.88 4.37,-2.88 0.8,0 2.66,-0.23 2.66,3.21 0,1.52 -1.67,3.09 -1.67,3.09 0,0 -0.24,-1.24 -2.06,-1.24 -1.25,-0.01 -2.12,1.3 -2.12,2.78 z"
     id="path4" />
  <path
     class="cls-2"
     d="m 18.076066,65.15 c 1.74,-0.46 3.5,-0.89 5.21,-1.28 l 0.45,-0.1 2.24,-0.49 h 0.11 l 0.57,-0.12 2.79,-0.56 h 0.13 v 0 c 3.2,-0.61 6.36,-1.11 9.4,-1.49 v 0 l 0.08,-0.42 0.75,-3.9 c -3.61,0.42 -7.36,1 -11.15,1.72 -3.79,0.72 -7.69,1.62 -11.46,2.62 -3.55,0.95 -7,2 -10.2000002,3.07 h -0.06 c 0.12,0.82 0.33,2.32 0.65,4.07 3.2400002,-1.08 6.8100002,-2.14 10.3300002,-3.07 z"
     id="path5" />
  <path
     class="cls-2"
     d="m 31.506066,74.79 2.27,13.58 2.75,-14.44 c -1.61,0.24 -3.25,0.52 -5,0.86 z"
     id="path6" />
  <path
     class="cls-2"
     d="m 21.606066,70.16 h 0.12 l 2.6,-0.68 h 0.18 c 0.92,-0.22 1.85,-0.44 2.75,-0.64 h 0.17 c 1,-0.23 2,-0.43 2.92,-0.62 2.56,-0.52 5.08,-1 7.49,-1.3 h 0.06 l 0.81,-4.25 c -2.94,0.38 -6,0.87 -9,1.46 -1,0.18 -1.95,0.38 -3,0.6 h -0.17 l -2.72,0.6 h -0.16 c -1.81,0.42 -3.62,0.86 -5.37,1.33 -3.35,0.88 -6.73,1.89 -10.3300002,3.1 v 0 c 0.14,0.73 0.29,1.54 0.46,2.28 l 0.13,0.57 c 0.11,0.5 0.23,1 0.35,1.51 3.1600002,-1.14 6.6700002,-2.25 10.1600002,-3.24 z"
     id="path7" />
  <path
     class="cls-2"
     d="m 27.796066,70.14 -0.33,0.07 c -2.74,0.62 -5.5,1.31 -8.2,2.08 -3.49,1 -6.88,2.07 -10.0900002,3.22 v 0 q 0.45,1.83 1.0000002,3.65 l 0.11,-0.06 a 134.4,134.4 0 0 1 26.57,-6.68 v 0 l 0.75,-4.11 c -2.34,0.35 -4.76,0.77 -7.2,1.27 z"
     id="path8" />
  <path
     class="cls-2"
     d="M 16.966066,59.69 8.8260658,14.92 h -0.06 a 150.67,150.67 0 0 0 -2,47.81 C 10.006066,61.63 13.426066,60.6 16.926066,59.67 Z"
     id="path9" />
  <path
     class="cls-2"
     d="m 57.106066,54.48 -2.72,-13.61 -2.7,13.61 c 0.87,0 1.77,0 2.66,0 0.89,0 1.83,0 2.76,0 z"
     id="path10" />
  <path
     class="cls-2"
     d="m 58.306066,60.14 c -0.13,-0.62 -0.75,-3.57 -0.9,-4.2 v 0 c -0.94,0 -1.94,0 -3,0 -1.06,0 -2,0 -3,0 v 0 c -0.14,0.63 -0.76,3.58 -0.89,4.2 1.41,0 2.69,-0.07 3.91,-0.07 1.22,0 2.46,0.02 3.88,0.07 z"
     id="path11" />
  <polygon
     class="cls-2"
     points="50.49,60.27 50.49,60.26 50.49,60.27 "
     id="polygon11"
     transform="translate(-0.01393417,-0.01)" />
  <path
     class="cls-2"
     d="m 54.406066,65.58 c 1.49,0 3.08,0 5,0.13 l -0.8,-4.12 h -0.1 c -1.57,-0.11 -2.9,-0.11 -4.1,-0.11 -1.2,0 -2.55,0 -4.12,0.09 h -0.08 l -0.82,4.13 v 0 c 1.96,-0.08 3.55,-0.12 5.02,-0.12 z"
     id="path12" />
  <path
     class="cls-2"
     d="m 60.506066,71.3 -0.82,-4.14 h -0.08 c -2,-0.1 -3.66,-0.15 -5.22,-0.15 -1.56,0 -3.25,0 -5.27,0.15 v 0 l -0.82,4.13 c 2.21,-0.12 4.19,-0.17 6.05,-0.17 1.86,0 3.95,0.07 6.16,0.18 z"
     id="path13" />
  <path
     class="cls-2"
     d="m 60.756066,72.75 c -2.26,-0.13 -4.34,-0.19 -6.35,-0.19 -2.01,0 -4.08,0.06 -6.35,0.19 v 0 l -9.62,47.73 a 75.8,75.8 0 0 0 16,8.47 75.74,75.74 0 0 0 16,-8.49 l -9.65,-47.71 z m -9.78,43 c -1.71,0 -6,-1.66 -6.32,-8.32 -0.25,-4.87 1.17,-6.16 1.17,-6.16 l 2.62,4.78 c 0,6.86 4.95,7 4.95,7 a 2.4,2.4 0 0 1 -2.42,2.73 z m 4,1.94 h -1.26 v -7.09 c -0.65,-0.28 -2.1,-1 -2.06,-3.67 a 23.48,23.48 0 0 0 -0.79,-6.78 c -0.42,-1.5 -3,-3.08 -3,-3.08 2.58,-2.87 4.84,1 4.74,0.54 a 7.18,7.18 0 0 1 0.62,-3.24 9.81,9.81 0 0 1 1.1,-1.77 9.78,9.78 0 0 1 1.11,1.77 7.16,7.16 0 0 1 0.62,3.24 c -0.1,0.48 2.16,-3.41 4.74,-0.54 0,0 -2.54,1.58 -3,3.08 a 23.58,23.58 0 0 0 -0.79,6.78 c 0,2.85 -1.62,3.47 -2.18,3.72 z m 9.12,-10.21 c -0.34,6.66 -4.62,8.32 -6.33,8.32 a 2.39,2.39 0 0 1 -2.41,-2.69 c 0,0 4.95,-0.14 4.95,-7 l 2.62,-4.78 c 0,0 1.42,1.27 1.17,6.15 z"
     id="path14" />
  <path
     class="cls-2"
     d="m 90.606066,66.64 c -1.77,-0.47 -3.57,-0.91 -5.34,-1.33 l -0.23,-0.05 -2.47,-0.55 -0.5,-0.11 -2.84,-0.57 c -3.07,-0.59 -6.13,-1.08 -9.09,-1.46 h -0.07 l 0.82,4.25 h 0.15 c 2.39,0.35 4.79,0.76 7.33,1.27 h 0.15 c 3.77,0.76 7.6,1.69 11.39,2.76 3.39,1 6.74,2 9.94,3.17 l 0.180004,0.07 q 0.51,-2.21 0.93,-4.41 l -0.17,-0.05 C 97.506066,68.59 94.076066,67.57 90.606066,66.64 Z"
     id="path15" />
  <path
     class="cls-2"
     d="m 89.606066,72.32 v 0 0 l -2.59,-0.71 h -0.05 l -2.73,-0.7 c -2,-0.48 -3.95,-0.92 -5.93,-1.33 -2.39,-0.48 -4.76,-0.9 -7.05,-1.24 h -0.06 l 0.86,4.14 v 0 c 1.65,0.24 3.37,0.54 5.37,0.92 h 0.18 l 0.88,0.18 0.76,0.15 0.49,0.1 c 0.91,0.19 1.85,0.4 2.88,0.63 l 0.77,0.18 c 1.06,0.25 2,0.48 2.84,0.7 l 0.31,0.08 2,0.55 0.49,0.14 c 3.3,0.93 6.47,2 9.44,3.05 l 0.21,0.08 q 0.53,-1.84 1,-3.69 l -0.22,-0.08 c -3.18,-1.15 -6.49,-2.2 -9.85,-3.15 z"
     id="path16" />
  <path
     class="cls-2"
     d="m 72.356066,73.95 2.75,14.42 2.26,-13.55 v 0 c -1.76,-0.34 -3.38,-0.62 -5.01,-0.87 z"
     id="path17" />
  <path
     class="cls-2"
     d="m 88.676066,77.48 -5.77,31.76 a 77.93,77.93 0 0 0 15.37,-28.63 v 0 c -3.05,-1.13 -6.28,-2.13 -9.6,-3.13 z"
     id="path18" />
  <path
     class="cls-2"
     d="m 102.03607,62.82 a 150.56,150.56 0 0 0 -2,-47.87 v 0 l -8.130004,44.8 v 0 c 3.49,0.94 6.89,1.97 10.130004,3.07 z"
     id="path19" />
  <path
     class="cls-2"
     d="m 80.366066,57.09 7.84,-46.23 a 198.93,198.93 0 0 0 -28.82,-4.14 l 9.37,48.58 v 0 c 3.79,0.43 7.69,1.04 11.61,1.79 z m -12.52,-30.55 1.69,-1 -4.17,-2.4 0.69,-0.24 -1.65,-3 3.41,-0.06 -0.14,-0.72 4.25,2.45 v -4.9 l 0.55,0.48 1.68,-2.92 1.68,2.92 0.55,-0.48 v 4.9 l 4.22,-2.42 -0.14,0.72 3.41,0.06 -1.65,3 0.69,0.24 -4.17,2.4 1.69,1 -0.69,0.24 1.65,3 -3.41,0.07 0.14,0.72 -3.22,-1.86 v 6.31 h -1.53 v -6.36 l -3.22,1.86 0.14,-0.72 -3.41,-0.07 1.65,-3 z"
     id="path20" />
  <path
     class="cls-2"
     d="m 91.606066,61.15 -2.5,-0.67 h -0.26 c -2.88,-0.72 -5.8,-1.37 -8.69,-1.93 -3.79,-0.77 -7.55,-1.35 -11.13,-1.77 0.09,0.64 0.63,3.66 0.74,4.3 v 0 c 3.08,0.39 6.26,0.89 9.48,1.5 h 0.15 c 0.89,0.17 1.82,0.36 2.82,0.57 l 0.52,0.11 2.6,0.58 h 0.08 l 2.61,0.62 0.7,0.18 1.91,0.49 h 0.08 0.16 0.09 c 3.49,0.93 6.88,1.94 10.080004,3 h 0.12 c 0.24,-1.36 0.45,-2.71 0.63,-4 h -0.13 C 98.476066,63.12 95.066066,62.09 91.606066,61.15 Z"
     id="path21" />
  <polygon
     class="cls-3"
     points=""
     id="polygon21"
     transform="translate(-0.01393417,-0.01)" />
  <path
     class="cls-3"
     d="m 57.096066,54.48 c -0.93,0 -1.83,0 -2.76,0 -0.93,0 -1.79,0 -2.66,0 0,0 -0.3,1.44 -0.3,1.44 v 0 c 0.95,0 2,0 3,0 1,0 2,0 3,0 v 0 c 0,0 -0.27,-1.44 -0.28,-1.44 z"
     id="path22" />
  <path
     class="cls-3"
     d="m 40.066066,55.28 c -3.75,0.42 -7.64,1 -11.57,1.77 v 0 c -3.85,0.74 -7.73,1.63 -11.54,2.64 v 0 c -3.5,0.93 -6.92,2 -10.1600002,3.06 0,0 0,0.08 0,0.13 0.05,0.39 0.1,0.78 0.15,1.17 v 0 0.12 h 0.06 c 3.2200002,-1.09 6.6500002,-2.13 10.2000002,-3.07 3.78,-1 7.63,-1.89 11.46,-2.62 3.83,-0.73 7.54,-1.3 11.15,-1.72 l 0.29,-1.48 z"
     id="path23" />
  <path
     class="cls-3"
     d="m 6.8160658,62.88 v 0 l 0.16,1.16 v 0 c -0.07,-0.38 -0.11,-0.77 -0.16,-1.16 z"
     id="path24" />
  <path
     class="cls-3"
     d="m 91.906066,59.75 v 0 c -3.81,-1 -7.69,-1.92 -11.53,-2.66 v 0 c -3.92,-0.76 -7.82,-1.36 -11.57,-1.78 v 0 0.13 c 0,0 0.23,1.22 0.23,1.22 a 0.53,0.53 0 0 0 0,0.13 c 3.59,0.42 7.34,1 11.12,1.74 2.89,0.56 5.81,1.21 8.69,1.93 l 0.26,0.07 2.47,0.64 c 3.49,0.94 6.9,2 10.130004,3.06 h 0.13 c 0,-0.19 0.07,-0.39 0.09,-0.58 0.02,-0.19 0.06,-0.49 0.09,-0.73 V 62.8 C 98.796066,61.72 95.396066,60.69 91.906066,59.75 Z"
     id="path25" />
  <path
     class="cls-3"
     d="m 36.816066,72.42 a 134.4,134.4 0 0 0 -26.57,6.68 l -0.11,0.06 0.42,1.41 v 0 c 2,-0.76 5.38,-1.92 9.64,-3.12 v 0 c 3.69,-1 7.5,-1.93 11.31,-2.65 v 0 c 1.76,-0.33 3.41,-0.61 5,-0.86 l 0.33,-1.51 z"
     id="path26" />
  <path
     class="cls-3"
     d="m 98.486066,79.15 c -3,-1.09 -6.15,-2.12 -9.44,-3.05 l -0.49,-0.14 -2,-0.55 -0.31,-0.08 c -0.85,-0.22 -1.78,-0.45 -2.84,-0.7 l -0.8,-0.15 c -1,-0.24 -2,-0.44 -2.88,-0.63 l -0.49,-0.1 -0.76,-0.15 -0.87,-0.2 h -0.12 c -2,-0.38 -3.72,-0.68 -5.37,-0.92 v 0 0.13 l 0.24,1.24 v 0.13 c 1.63,0.25 3.27,0.53 5,0.86 v 0 c 3.8,0.73 7.61,1.63 11.3,2.67 v 0 c 3.32,0.94 6.55,2 9.6,3.12 v 0 -0.12 c 0.12,-0.38 0.23,-0.76 0.34,-1.15 v -0.12 z"
     id="path27" />
  <path
     class="cls-3"
     d="m 98.326066,80.48 0.34,-1.15 v 0 c -0.11,0.38 -0.23,0.77 -0.34,1.15 z"
     id="path28" />
  <path
     class="cls-3"
     d="m 60.506066,71.3 c -2.21,-0.12 -4.23,-0.17 -6.16,-0.17 -1.93,0 -3.84,0.06 -6.05,0.17 l -0.27,1.45 v 0 c 2.27,-0.13 4.35,-0.19 6.35,-0.19 2,0 4.09,0.06 6.35,0.19 v 0 z"
     id="path29" />
  <polygon
     class="cls-3"
     points="60.55,71.44 60.54,71.44 60.76,72.55 "
     id="polygon29"
     transform="translate(-0.01393417,-0.01)" />
  <path
     class="cls-3"
     d="m 58.306066,60.14 c -1.42,0 -2.69,-0.07 -3.9,-0.07 -1.21,0 -2.5,0 -3.91,0.07 l -0.29,1.45 h 0.08 c 1.57,-0.06 2.88,-0.09 4.12,-0.09 1.24,0 2.53,0 4.1,0.08 h 0.1 z"
     id="path30" />
  <path
     class="cls-3"
     d="m 38.966066,61.07 c -3,0.38 -6.2,0.88 -9.4,1.49 v 0 h -0.13 l -2.83,0.57 -0.57,0.12 h -0.11 l -2.24,0.49 -0.45,0.1 c -1.72,0.39 -3.47,0.82 -5.21,1.28 h -0.12 c -3.52,0.93 -7.1,2 -10.3300002,3.07 v 0.13 0 l 0.21,1.21 v 0 0.15 0 c 3.6000002,-1.2 7.0000002,-2.22 10.3300002,-3.1 1.75,-0.46 3.56,-0.91 5.37,-1.33 h 0.16 l 2.72,-0.6 h 0.17 c 1,-0.22 2,-0.42 3,-0.6 3.06,-0.58 6.1,-1.08 9,-1.46 v -0.13 0 l 0.24,-1.24 v 0 -0.13 z"
     id="path31" />
  <polygon
     class="cls-3"
     points="38.76,62.45 38.76,62.45 39,61.21 "
     id="polygon31"
     transform="translate(-0.01393417,-0.01)" />
  <path
     class="cls-3"
     d="m 7.6060658,68.38 c 0.07,0.39 0.13,0.77 0.22,1.2 v 0 l -0.22,-1.21 z"
     id="path32" />
  <polygon
     class="cls-3"
     points=""
     id="polygon32"
     transform="translate(-0.01393417,-0.01)" />
  <path
     class="cls-3"
     d="m 101.07607,68.27 c -3.200004,-1.07 -6.590004,-2.08 -10.080004,-3 h -0.09 -0.16 -0.08 l -1.91,-0.49 -0.7,-0.18 -2.61,-0.62 h -0.08 l -2.6,-0.58 -0.52,-0.11 c -1,-0.21 -1.93,-0.4 -2.82,-0.57 h -0.15 c -3.21,-0.61 -6.4,-1.12 -9.48,-1.5 v 0 0.13 l 0.23,1.13 v 0.13 h 0.07 c 3,0.38 6,0.88 9.09,1.46 l 2.84,0.57 0.5,0.11 2.47,0.55 0.23,0.05 c 1.77,0.41 3.57,0.86 5.34,1.33 3.49,0.93 6.92,1.95 10.190004,3 l 0.17,0.05 v -0.12 c 0.07,-0.39 0.14,-0.78 0.21,-1.18 v -0.12 z"
     id="path33" />
  <path
     class="cls-3"
     d="m 100.98607,69.61 0.2,-1.18 c -0.07,0.39 -0.14,0.79 -0.21,1.18 z"
     id="path34" />
  <path
     class="cls-3"
     d="m 59.406066,65.72 c -1.92,-0.09 -3.51,-0.13 -5,-0.13 -1.49,0 -3.06,0 -5,0.13 v 0 0.13 l -0.24,1.2 v 0.13 0 c 2,-0.1 3.69,-0.15 5.27,-0.15 1.58,0 3.22,0 5.22,0.15 h 0.06 z"
     id="path35" />
  <path
     class="cls-3"
     d="m 37.856066,66.82 c -2.41,0.35 -4.93,0.78 -7.49,1.3 -0.94,0.19 -1.89,0.39 -2.92,0.62 h -0.17 c -0.91,0.2 -1.83,0.42 -2.75,0.64 h -0.18 l -2.65,0.67 h -0.12 l -2.58,0.7 c -3.48,1 -7,2.1 -10.1600002,3.24 0.09,0.4 0.18,0.81 0.28,1.21 v 0.08 0.12 0 c 3.2100002,-1.16 6.6100002,-2.24 10.0900002,-3.22 2.7,-0.76 5.46,-1.46 8.2,-2.08 l 0.33,-0.07 2.64,-0.56 c 2.45,-0.5 4.87,-0.92 7.2,-1.27 0,0 0.28,-1.49 0.28,-1.49 z"
     id="path36" />
  <polygon
     class="cls-3"
     points=""
     id="polygon36"
     transform="translate(-0.01393417,-0.01)" />
  <path
     class="cls-3"
     d="m 9.1060658,75.31 v 0.08 0 z"
     id="path37" />
  <path
     class="cls-3"
     d="m 99.826066,74.08 c -3.2,-1.14 -6.55,-2.21 -9.94,-3.17 -3.79,-1.07 -7.62,-2 -11.39,-2.76 h -0.15 c -2.54,-0.51 -4.94,-0.93 -7.33,-1.27 h -0.15 v 0.13 l 0.24,1.23 v 0.13 h 0.06 c 2.29,0.34 4.66,0.76 7.05,1.24 2,0.4 4,0.85 5.93,1.33 l 2.73,0.7 h 0.05 l 2.59,0.71 v 0 0 c 3.34,0.95 6.65,2 9.84,3.15 l 0.22,0.08 v -0.12 c 0.09,-0.38 0.18,-0.77 0.27,-1.15 v -0.12 z"
     id="path38" />
  <path
     class="cls-3"
     d="m 41.786066,27.48 c 0,0 1.67,-1.57 1.67,-3.09 0,-3.45 -1.85,-3.21 -2.66,-3.21 -1.85,0 -4.37,2.88 -4.37,2.88 0.28,-0.63 0.76,-1.75 0.9,-2.1 0.06,-0.14 0.13,-0.32 0.21,-0.51 a 4.5,4.5 0 0 0 0.07,-3.16 c -0.43,-1.33 -1.35,-1.9 -2.1,-2.83 -0.75,-0.93 -1.11,-1.31 -1.11,-1.31 0,0 -0.29,0.33 -1.1,1.33 -0.81,1 -1.67,1.5 -2.1,2.83 a 4.51,4.51 0 0 0 0.09,3.17 c 0.07,0.2 0.15,0.37 0.21,0.51 0.14,0.35 0.62,1.47 0.9,2.1 0,0 -2.52,-2.88 -4.37,-2.88 -0.8,0 -2.66,-0.23 -2.66,3.21 0,1.52 1.67,3.09 1.67,3.09 0,0 0.24,-1.24 2.06,-1.24 1.25,0 2.1,1.31 2.1,2.79 0,1.21 -0.25,2.23 -0.55,2.36 a 20.07,20.07 0 0 1 1.7,1.29 c 0.38,0.38 2.06,2.41 2.06,2.41 0,0 1.68,-2 2.06,-2.41 a 20.59,20.59 0 0 1 1.71,-1.29 c -0.3,-0.13 -0.55,-1.14 -0.55,-2.36 0,-1.47 0.85,-2.79 2.1,-2.79 1.81,-0.01 2.06,1.21 2.06,1.21 z"
     id="path39" />
  <path
     class="cls-3"
     d="m 55.366066,113.09 a 2.39,2.39 0 0 0 2.41,2.69 c 1.71,0 6,-1.66 6.33,-8.32 0.25,-4.87 -1.17,-6.16 -1.17,-6.16 l -2.62,4.78 c 0,6.87 -4.95,7.01 -4.95,7.01 z"
     id="path40" />
  <path
     class="cls-3"
     d="m 48.436066,106.09 -2.62,-4.78 c 0,0 -1.41,1.29 -1.21,6.17 0.34,6.66 4.62,8.32 6.32,8.32 a 2.4,2.4 0 0 0 2.41,-2.69 c 0,0 -4.9,-0.16 -4.9,-7.02 z"
     id="path41" />
  <path
     class="cls-3"
     d="m 57.106066,106.96 a 23.58,23.58 0 0 1 0.79,-6.78 c 0.42,-1.5 3,-3.08 3,-3.08 -2.58,-2.87 -4.84,1 -4.74,0.54 a 7.16,7.16 0 0 0 -0.62,-3.24 9.78,9.78 0 0 0 -1.11,-1.77 9.81,9.81 0 0 0 -1.1,1.77 7.18,7.18 0 0 0 -0.62,3.24 c 0.09,0.48 -2.16,-3.41 -4.74,-0.54 0,0 2.54,1.58 3,3.08 a 23.48,23.48 0 0 1 0.79,6.78 c 0,2.67 1.41,3.38 2.06,3.67 v 7.09 h 1.21 v -7 c 0.47,-0.24 2.12,-0.9 2.08,-3.76 z"
     id="path42" />
  <polygon
     class="cls-3"
     points="73.4,28.7 73.4,35.01 74.13,35.01 74.22,35.01 74.96,35.01 74.96,28.7 78.18,30.56 78.03,29.84 81.45,29.77 79.8,26.79 80.49,26.55 78.8,25.58 82.97,23.17 82.28,22.94 83.93,19.95 80.52,19.88 80.66,19.16 76.41,21.61 76.41,16.71 75.86,17.19 74.18,14.27 72.5,17.19 71.94,16.71 71.94,21.61 67.7,19.16 67.84,19.88 64.43,19.95 66.07,22.94 65.38,23.17 69.55,25.58 67.86,26.55 68.56,26.79 66.91,29.77 70.32,29.84 70.18,30.56 "
     id="polygon42"
     transform="translate(-0.01393417,-0.01)" />
  <metadata
     id="metadata56">
    <rdf:RDF>
      <cc:Work
         rdf:about="">
        <dc:title>uwindsor_logo</dc:title>
      </cc:Work>
    </rdf:RDF>
  </metadata>
</svg>
